<svg xmlns="http://www.w3.org/2000/svg" width="65" style="vertical-align:top" viewBox="178 22 372 96"><path fill="#2e963d" d="M240.777 112.059h-9.55V24.906h9.55Z"/><path fill="#2e963d" d="M232.07 51.797c-7.449-2.203-26.812-3.32-37.515 12.82-13.621 20.547-5.047 50.54 11.668 50.54 18.12 0 25.004-15.532 28.093-20.415l-1.543-12.957s-12.222 25.91-27.25 22.457c-13.492-3.097-12.644-53.57 25.704-42.59Z"/><path fill="#2798ce" d="M276.18 106.41c-10.938 0-19.809-10.547-19.809-23.562 0-13.012 8.871-23.563 19.809-23.563 10.933 0 19.804 10.55 19.804 23.563 0 13.015-8.87 23.562-19.804 23.562m0-56.71c-16.36 0-29.621 14.84-29.621 33.148S259.82 116 276.179 116s29.622-14.844 29.622-33.152c0-18.309-13.262-33.149-29.621-33.149"/><path fill="#efbc8b" d="M312.422 50.543v43.98c0 9.926 6.11 20.633 17.7 20.633 9.901 0 20.226-9.719 23.179-14.648V87.273s-8.285 17.32-21.684 17.465c-5.93.063-9.715-3.879-10.137-12.539-.183-3.793 0-41.656 0-41.656Z"/><path fill="#efbc8b" d="M362.36 115.156h-9.06V50.543h9.06Z"/><path fill="#2e963d" d="M374.516 113.75h9.546V26.594h-9.546Z"/><path fill="#2e963d" d="M382.027 113.75c9.907 0 29.22.313 38.707-12.668 14.547-19.902 5.051-50.539-11.66-50.539-18.12 0-25.012 15.527-28.097 20.414l1.546 12.953s12.223-25.906 27.247-22.457c13.492 3.102 14.96 47.645-26.293 42.723Z"/><path fill="#2798ce" d="M488.863 50.543h-9.55v63.207h9.55Z"/><path fill="#2798ce" d="M481.348 50.543c-9.903 0-29.215-.316-38.707 12.664-14.543 19.906-5.051 50.543 11.664 50.543 18.12 0 25.007-15.531 28.097-20.418l-1.547-12.953s-12.222 25.906-27.25 22.453c-13.492-3.098-14.96-47.64 26.293-42.719Z"/><path fill="#efbc8b" d="M548 115.156V71.172c0-9.926-6.11-20.629-17.7-20.629-9.902 0-20.23 9.719-23.179 14.645v13.234s8.29-17.317 21.692-17.461c5.925-.063 9.707 3.875 10.128 12.535.184 3.797 0 41.66 0 41.66ZM498.063 50.543h9.058v64.613h-9.058Z"/></svg>