<svg width="14" height="14" viewBox="0 0 14 14" fill="none" xmlns="http://www.w3.org/2000/svg">
<path d="M9.83946 0.0375758C9.88712 0.0596313 11.0131 0.590608 11.3359 1.63826C11.5664 2.38519 11.316 3.14757 11.1429 3.5444C11.3578 3.81623 11.549 4.10605 11.7091 4.41413C12.2519 3.65749 13.2479 3.37459 13.2928 3.36188C13.495 3.30511 13.7058 3.41089 13.7839 3.60775C13.8035 3.65758 14.2597 4.83391 13.7846 5.81946C13.451 6.51224 12.7199 6.88688 12.3231 7.05607C12.3171 7.38083 12.284 7.70126 12.2227 8.01623C12.9538 7.87924 13.6742 8.05705 13.7126 8.06904C13.9121 8.13317 14.0327 8.33984 13.9922 8.54896C13.9818 8.60124 13.6975 9.87572 12.7718 10.4365C12.2177 10.7722 11.51 10.8055 10.8752 10.6768C10.6763 10.8919 10.4661 11.0932 10.239 11.2705C10.4359 11.3284 10.6329 11.4071 10.8168 11.5315C10.9663 11.6327 11.096 11.7517 11.2086 11.88C11.7718 12.5222 11.9031 13.3979 11.9091 13.4422C11.9391 13.6529 11.8089 13.8535 11.6067 13.907C11.3692 13.9703 11.0955 14.0035 10.8145 13.9997C10.3356 13.9932 9.83517 13.8789 9.45615 13.6223C8.89145 13.2399 8.60836 12.6043 8.47383 12.1715C7.99903 12.3109 7.50507 12.3909 7.00003 12.3909C6.48763 12.3909 5.98664 12.3091 5.50591 12.1659C5.37329 12.5994 5.09811 13.221 4.54871 13.6023C4.16776 13.8672 3.66794 13.9847 3.19799 13.9976C2.90998 14.0054 2.63317 13.974 2.40182 13.9132C2.19874 13.8617 2.06617 13.6632 2.09379 13.452C2.09424 13.4485 2.09541 13.4398 2.09747 13.4263L2.10646 13.3724C2.14896 13.1344 2.3101 12.4214 2.78258 11.8744C2.89217 11.7476 3.01853 11.6296 3.16403 11.5287C3.34849 11.4001 3.547 11.3182 3.74566 11.2577C3.52866 11.0869 3.3273 10.8941 3.13627 10.6885C2.49681 10.8192 1.77622 10.7852 1.21778 10.4418C0.412739 9.94725 0.0987455 8.91366 0.0250532 8.62311L0.0159553 8.58605C0.0109948 8.56507 0.00820516 8.55176 0.00735344 8.54731C-0.0319122 8.33777 0.0898769 8.13194 0.289732 8.06904C0.327494 8.05643 1.04869 7.88292 1.77863 8.02398C1.7165 7.70692 1.68314 7.38431 1.67713 7.05744C1.28078 6.88836 0.548213 6.5133 0.214564 5.81904C-0.259686 4.83307 0.197338 3.65716 0.216971 3.60772C0.295885 3.41045 0.505776 3.30466 0.708447 3.36185C0.753346 3.37493 1.74855 3.65791 2.29072 4.41452C2.44858 4.11068 2.63678 3.82487 2.84793 3.55647C2.67714 3.16466 2.41861 2.38541 2.65732 1.62761C2.98698 0.581574 4.11611 0.0583766 4.16377 0.0367114C4.35602 -0.0502837 4.57953 0.0236343 4.68489 0.207439C4.71133 0.253586 5.32976 1.34945 5.00049 2.39506C4.72503 3.26914 3.89892 3.77304 3.6044 3.92938C2.79584 4.87305 2.42924 6.1475 2.48954 6.87503C2.49045 6.88597 2.49037 6.90659 2.49024 6.93615L2.49015 6.99887C2.49127 7.31109 2.52331 8.14043 3.0293 9.13648C3.8424 10.6496 5.36413 11.5544 7 11.5544C8.64951 11.5544 10.1848 10.6317 10.9923 9.09505C11.4759 8.11832 11.5083 7.31271 11.5097 7.00442L11.5096 6.89686C11.5098 6.88933 11.51 6.88332 11.5103 6.87888C11.5648 6.21548 11.2529 4.94931 10.4185 3.9581C10.1648 3.82618 9.27063 3.30566 8.9883 2.39102C8.66507 1.34337 9.29072 0.251188 9.31755 0.205041C9.4237 0.022045 9.6472 -0.0510644 9.83946 0.0375758ZM5.21227 6.02404C5.33883 6.02404 5.44143 6.12967 5.44143 6.25997V8.85524C5.44143 8.98554 5.33883 9.09117 5.21227 9.09117H4.46747C4.34091 9.09117 4.23831 8.98554 4.23831 8.85524V6.25997C4.23831 6.12967 4.34091 6.02404 4.46747 6.02404H5.21227ZM7.165 3.57584C7.56476 3.51915 7.64585 3.90914 7.72997 4.31945L7.74885 4.41079C7.76483 4.4869 7.78174 4.56262 7.80162 4.63524C7.85017 4.98547 7.80898 5.34259 7.6821 5.67164C7.67636 5.68953 7.67934 5.70915 7.69012 5.72442C7.7009 5.73968 7.71817 5.74874 7.73657 5.74878H9.18713C9.33953 5.74878 9.48569 5.81072 9.59345 5.92098C9.70121 6.03123 9.76175 6.18078 9.76175 6.3367C9.76175 6.54891 9.65004 6.74467 9.46938 6.84891C9.53587 6.97443 9.54996 7.12211 9.50845 7.25842C9.46694 7.39473 9.37336 7.50809 9.24896 7.57276C9.37388 7.83267 9.27146 8.14704 9.01911 8.27827C9.05414 8.35107 9.0723 8.43114 9.07221 8.51227C9.07221 8.66513 9.00509 8.92382 8.55506 8.92382H7.06106C6.74313 8.92551 6.42615 8.88833 6.11685 8.81305C6.04652 8.79777 5.97205 8.78201 5.88999 8.76602C5.83593 8.75531 5.7969 8.70689 5.7969 8.65055V6.27156C5.7969 6.23288 5.81543 6.19665 5.84655 6.17467C6.28441 5.86542 6.77375 5.15991 6.77375 4.51413C6.76472 4.27793 6.68111 3.57584 7.165 3.57584Z" fill="#C0A574"/>
</svg>