<svg xmlns="http://www.w3.org/2000/svg" width="32" height="16" class="ipc-logo" viewBox="0 0 64 32"><rect width="100%" height="100%" fill="#f5c518" rx="4"/><path d="M8 25h5V7H8zM23.673 7l-1.12 8.408-.695-4.573A126 126 0 0 0 21.278 7H15v18h4.242l.016-11.886L21.044 25h3.02l1.694-12.148L25.771 25H30V7zM32 25V7h7.805A3.185 3.185 0 0 1 43 10.177v11.646A3.185 3.185 0 0 1 39.805 25zm5.832-14.76q-.299-.161-1.13-.16v11.811c.73 0 1.178-.13 1.346-.404.168-.27.254-1 .254-2.2v-6.98q-.001-1.219-.086-1.563a.74.74 0 0 0-.384-.504M52.43 11.507h.32c1.795 0 3.25 1.406 3.25 3.138v7.217C56 23.595 54.545 25 52.75 25h-.32a3.28 3.28 0 0 1-2.658-1.332l-.288 1.1H45V7h4.784v5.78a3.39 3.39 0 0 1 2.646-1.273m-1.024 8.777V16.02q0-1.059-.14-1.38c-.094-.213-.47-.35-.734-.35s-.671.111-.75.299v7.219c.09.206.478.32.75.32.271 0 .666-.11.75-.32q.123-.315.124-1.523"/></svg>