<svg width="722" height="100" viewBox="0 0 722 100" fill="none" xmlns="http://www.w3.org/2000/svg">
<path d="M19.0308 2.90563V32.0485L38.8682 2.90563H61.9652L28.4145 37.059L89.6717 2.90563V24.5903L34.6702 45.1907L89.6717 40.0488V60.6493L34.6702 55.5074L89.6717 76.1078V97.7924L28.4145 63.6391L61.9652 97.7924H38.8517L19.0143 68.6496V97.7924H0V2.90563H19.0308Z" fill="url(#paint0_radial_4_61)"/>
<path d="M103.237 2.90563H125.643L122.251 64.2962L150.089 2.90563H168.429V97.776H146.023L149.415 36.3854L121.576 97.776H103.237V2.90563Z" fill="url(#paint1_radial_4_61)"/>
<path d="M182.01 2.90563H204.416V39.5067H223.43V2.90563H245.836V97.776H223.43V54.4067H204.416V97.776H182.01V2.90563Z" fill="url(#paint2_radial_4_61)"/>
<path d="M256.158 50.349C256.158 23.2432 268.653 1.01644 293.775 1.01644C318.897 1.01644 331.392 23.2432 331.392 50.349C331.392 77.4549 318.897 99.6816 293.775 99.6816C268.653 99.6816 256.158 77.4549 256.158 50.349ZM293.775 85.5866C302.599 85.5866 307.768 69.9967 307.768 50.349C307.768 30.7014 302.599 15.1115 293.775 15.1115C284.951 15.1115 279.782 30.7014 279.782 50.349C279.798 69.9967 284.951 85.5866 293.775 85.5866Z" fill="url(#paint3_radial_4_61)"/>
<path d="M341.714 2.90563H406.231V97.776H383.825V17.8056H364.136V97.776H341.731V2.90563H341.714Z" fill="url(#paint4_radial_4_61)"/>
<path d="M416.553 50.349C416.553 23.2432 429.048 1.01644 454.17 1.01644C479.292 1.01644 491.787 23.2432 491.787 50.349C491.787 77.4549 479.292 99.6816 454.17 99.6816C429.048 99.6816 416.553 77.4549 416.553 50.349ZM454.187 85.5866C463.01 85.5866 468.18 69.9967 468.18 50.349C468.18 30.7014 463.01 15.1115 454.187 15.1115C445.363 15.1115 440.193 30.7014 440.193 50.349C440.193 69.9967 445.346 85.5866 454.187 85.5866Z" fill="url(#paint5_radial_4_61)"/>
<path d="M502.126 2.90563H524.531L521.14 64.2962L548.978 2.90563H567.317V97.776H544.912L548.303 36.3854L520.465 97.776H502.126V2.90563Z" fill="url(#paint6_radial_4_61)"/>
<path d="M626.929 64.2962L648.248 67.5489L647.573 70.8016C643.901 88.4286 632.773 99.6652 614.433 99.6652C589.311 99.6652 577.623 77.4384 577.623 50.3326C577.623 23.2268 589.311 1 614.433 1C632.098 1 643.358 12.253 647.309 28.7794L647.984 31.6214L626.122 36.5004C624.492 23.3582 620.557 15.0786 614.433 15.0786C605.609 15.0786 601.263 30.6686 601.263 50.3162C601.263 69.9638 605.609 85.5538 614.433 85.5538C621.101 85.5866 625.299 76.7649 626.929 64.2962Z" fill="url(#paint7_radial_4_61)"/>
<path d="M657.483 2.90563H679.889V45.6014L698.228 2.90563H721.325L694.837 48.8541L722 97.776H696.878L679.905 55.0802V97.776H657.5V2.90563H657.483Z" fill="url(#paint8_radial_4_61)"/>
<defs>
<radialGradient id="paint0_radial_4_61" cx="0" cy="0" r="1" gradientUnits="userSpaceOnUse" gradientTransform="translate(2.31518e-05 2.90588) rotate(1.9957) scale(865.145 126.587)">
<stop offset="0.5" stop-color="#FF5500"/>
<stop offset="1" stop-color="#BDF700"/>
</radialGradient>
<radialGradient id="paint1_radial_4_61" cx="0" cy="0" r="1" gradientUnits="userSpaceOnUse" gradientTransform="translate(2.31518e-05 2.90588) rotate(1.9957) scale(865.145 126.587)">
<stop offset="0.5" stop-color="#FF5500"/>
<stop offset="1" stop-color="#BDF700"/>
</radialGradient>
<radialGradient id="paint2_radial_4_61" cx="0" cy="0" r="1" gradientUnits="userSpaceOnUse" gradientTransform="translate(2.31518e-05 2.90588) rotate(1.9957) scale(865.145 126.587)">
<stop offset="0.5" stop-color="#FF5500"/>
<stop offset="1" stop-color="#BDF700"/>
</radialGradient>
<radialGradient id="paint3_radial_4_61" cx="0" cy="0" r="1" gradientUnits="userSpaceOnUse" gradientTransform="translate(2.31518e-05 2.90588) rotate(1.9957) scale(865.145 126.587)">
<stop offset="0.5" stop-color="#FF5500"/>
<stop offset="1" stop-color="#BDF700"/>
</radialGradient>
<radialGradient id="paint4_radial_4_61" cx="0" cy="0" r="1" gradientUnits="userSpaceOnUse" gradientTransform="translate(2.31518e-05 2.90588) rotate(1.9957) scale(865.145 126.587)">
<stop offset="0.5" stop-color="#FF5500"/>
<stop offset="1" stop-color="#BDF700"/>
</radialGradient>
<radialGradient id="paint5_radial_4_61" cx="0" cy="0" r="1" gradientUnits="userSpaceOnUse" gradientTransform="translate(2.31518e-05 2.90588) rotate(1.9957) scale(865.145 126.587)">
<stop offset="0.5" stop-color="#FF5500"/>
<stop offset="1" stop-color="#BDF700"/>
</radialGradient>
<radialGradient id="paint6_radial_4_61" cx="0" cy="0" r="1" gradientUnits="userSpaceOnUse" gradientTransform="translate(2.31518e-05 2.90588) rotate(1.9957) scale(865.145 126.587)">
<stop offset="0.5" stop-color="#FF5500"/>
<stop offset="1" stop-color="#BDF700"/>
</radialGradient>
<radialGradient id="paint7_radial_4_61" cx="0" cy="0" r="1" gradientUnits="userSpaceOnUse" gradientTransform="translate(2.31518e-05 2.90588) rotate(1.9957) scale(865.145 126.587)">
<stop offset="0.5" stop-color="#FF5500"/>
<stop offset="1" stop-color="#BDF700"/>
</radialGradient>
<radialGradient id="paint8_radial_4_61" cx="0" cy="0" r="1" gradientUnits="userSpaceOnUse" gradientTransform="translate(2.31518e-05 2.90588) rotate(1.9957) scale(865.145 126.587)">
<stop offset="0.5" stop-color="#FF5500"/>
<stop offset="1" stop-color="#BDF700"/>
</radialGradient>
</defs>
</svg>
