<svg xmlns="http://www.w3.org/2000/svg" width="48" style="vertical-align:top" viewBox="0 0 800 240"><g fill="#fff"><path d="M444.53 171.29a45.66 45.66 0 0 0-15.67-14.69 39.3 39.3 0 0 0 11.78-12.32q4.42-7.34 4.43-17.94a40.2 40.2 0 0 0-3.46-16.85 38.1 38.1 0 0 0-9.61-13 43.3 43.3 0 0 0-14.7-8.32 57.3 57.3 0 0 0-18.69-2.92h-74.54v151.29h78.86a56.7 56.7 0 0 0 19.34-3.14 44.8 44.8 0 0 0 15-8.74A38.6 38.6 0 0 0 447 211a44 44 0 0 0 3.46-17.71q.01-12.93-5.93-22m-92.37-62.23h44.29q9.72 0 15.13 4.65t5.4 13.72q0 9.06-5.4 14.26t-15.13 5.18h-44.29Zm65.14 98q-5.07 5.73-16.53 5.73h-48.61v-42.15h48.61q11.24 0 16.43 6.37a23.43 23.43 0 0 1 5.18 15.24q0 9.08-5.08 14.75ZM268.53 235.24a58 58 0 0 0 19.77-12.42 53.7 53.7 0 0 0 12.42-18.58 60.1 60.1 0 0 0 4.33-22.8V85.29H277v96.15a39.9 39.9 0 0 1-2.53 14.56 30 30 0 0 1-7 10.8 30.7 30.7 0 0 1-10.91 6.81 43.43 43.43 0 0 1-28.3 0 30.8 30.8 0 0 1-10.92-6.81 30.25 30.25 0 0 1-7-10.8 40.1 40.1 0 0 1-2.48-14.59V85.29h-28.13v96.15a60.3 60.3 0 0 0 4.32 22.8 53.7 53.7 0 0 0 12.42 18.58 58.3 58.3 0 0 0 19.67 12.42 77.84 77.84 0 0 0 52.39 0M80.13 236.54l34.36-65.9q3-5.61 5.39-10.59t4.54-9.83q2.16-4.86 4.22-9.94t4.43-10.69h.86q-.44 6-.86 11.34c-.3 3.53-.51 6.95-.65 10.26s-.25 6.74-.33 10.27-.11 7.31-.11 11.34v63.74h28.09V85.29h-31.32l-29.39 57.47q-3 5.85-5.51 10.81c-1.66 3.31-3.24 6.56-4.75 9.72s-3 6.41-4.43 9.73-3 6.84-4.54 10.58q-2.38-5.6-4.54-10.6t-4.43-9.73c-1.51-3.16-3.1-6.41-4.75-9.72s-3.49-6.91-5.51-10.81L31.51 85.29H.19v151.25h28.08V172.8q0-6-.1-11.34t-.33-10.27q-.21-5-.65-10.26t-.86-11.34h.86q2.16 5.61 4.32 10.69t4.33 9.94c1.43 3.24 2.95 6.52 4.53 9.83s3.39 6.85 5.4 10.59ZM468.61 85.29h28.09v151.25h-28.09z"/><circle cx="766.5" cy="118.11" r="33.13"/><circle cx="595.89" cy="118.11" r="33.13"/><circle cx="681.2" cy="118.11" r="33.13"/><circle cx="595.89" cy="33.13" r="33.13"/><circle cx="681.2" cy="33.13" r="33.13"/><circle cx="595.89" cy="203.1" r="33.13"/><circle cx="681.2" cy="203.1" r="33.13"/></g></svg>