<svg xmlns="http://www.w3.org/2000/svg" width="22" height="22" fill="none" viewBox="0 0 31 30"><path fill="#2fc46f" d="M28.11 14.127c.123.123.33.031.317-.142a12.9 12.9 0 0 0-3.758-8.154 12.9 12.9 0 0 0-8.154-3.758c-.173-.013-.265.194-.142.316zM28.427 16.015c.013-.173-.194-.265-.317-.142L16.374 27.61c-.123.123-.031.33.142.317a12.9 12.9 0 0 0 8.154-3.758 12.9 12.9 0 0 0 3.758-8.154M14.627 27.61c.123.123.031.33-.142.317a12.9 12.9 0 0 1-8.154-3.758 12.9 12.9 0 0 1-3.758-8.154c-.013-.173.194-.265.316-.142zM2.573 13.985c-.013.173.194.265.316.142L14.627 2.39c.123-.122.031-.33-.142-.316a12.9 12.9 0 0 0-8.154 3.758 12.9 12.9 0 0 0-3.758 8.154"/><path fill="#2fc46f" d="M29.31 10.473c.139.139.364.005.302-.18a14.8 14.8 0 0 0-3.595-5.81 14.8 14.8 0 0 0-5.81-3.595c-.185-.062-.319.163-.18.302zM29.612 19.708c.062-.186-.163-.32-.302-.181l-9.283 9.283c-.139.139-.005.364.18.302a14.8 14.8 0 0 0 5.81-3.595 14.8 14.8 0 0 0 3.595-5.81M10.973 28.81c.139.139.005.364-.18.302a14.8 14.8 0 0 1-5.81-3.595 14.8 14.8 0 0 1-3.595-5.81c-.062-.185.163-.319.302-.18zM1.388 10.292c-.062.186.163.32.302.181l9.283-9.283c.139-.139.005-.364-.18-.302a14.8 14.8 0 0 0-5.81 3.595 14.8 14.8 0 0 0-3.595 5.81M30.143 23.217c.087-.187-.14-.338-.285-.192l-6.333 6.333c-.146.145.005.371.192.285a13.2 13.2 0 0 0 6.426-6.426M7.283.357c.187-.086.338.14.192.286L1.143 6.975C.997 7.121.77 6.97.857 6.783A13.2 13.2 0 0 1 7.283.357M23.717.357c-.187-.086-.338.14-.192.286l6.333 6.332c.145.146.371-.005.285-.192A13.2 13.2 0 0 0 23.717.357M.857 23.217c-.086-.187.14-.338.286-.192l6.332 6.333c.146.145-.005.371-.192.285a13.2 13.2 0 0 1-6.426-6.426M22.242 8.258A9.534 9.534 0 1 1 8.758 21.742 9.534 9.534 0 0 1 22.242 8.258"/></svg>