<svg xmlns="http://www.w3.org/2000/svg" width="200" height="27" fill="#fff" viewBox="0 0 150 22"><path d="M16.023 8.132a.108.108 0 0 0 .186-.084 7.63 7.63 0 0 0-2.208-4.808 7.58 7.58 0 0 0-4.79-2.217c-.102-.008-.156.114-.084.187zM16.21 9.245a.108.108 0 0 0-.187-.084l-6.896 6.922c-.072.072-.018.194.083.186a7.58 7.58 0 0 0 4.791-2.216 7.63 7.63 0 0 0 2.208-4.808M8.102 16.083c.072.072.018.194-.084.186a7.58 7.58 0 0 1-4.79-2.216 7.63 7.63 0 0 1-2.209-4.808.108.108 0 0 1 .186-.084zM1.02 8.048a.108.108 0 0 0 .185.084L8.102 1.21c.072-.073.018-.195-.084-.187a7.58 7.58 0 0 0-4.79 2.217 7.63 7.63 0 0 0-2.209 4.808"/><path d="M16.728 5.977c.082.082.214.003.177-.107a8.74 8.74 0 0 0-2.112-3.426A8.7 8.7 0 0 0 11.38.324c-.11-.036-.188.096-.106.178zM16.905 11.423c.037-.11-.095-.189-.177-.107l-5.454 5.474c-.082.082-.003.215.106.178a8.7 8.7 0 0 0 3.413-2.12 8.74 8.74 0 0 0 2.112-3.426M5.955 16.79c.081.082.003.215-.107.178a8.7 8.7 0 0 1-3.413-2.12 8.74 8.74 0 0 1-2.112-3.426c-.036-.11.096-.188.177-.106zM.323 5.87c-.036.11.096.189.177.107L5.955.502c.081-.082.003-.214-.107-.178a8.7 8.7 0 0 0-3.413 2.12A8.74 8.74 0 0 0 .323 5.87M17.217 13.492c.051-.11-.082-.2-.167-.114l-3.721 3.735c-.086.086.003.22.113.168a7.781 7.781 0 0 0 3.775-3.79M3.787.011c.11-.05.198.083.113.169L.179 3.914C.093 4-.04 3.911.01 3.801A7.78 7.78 0 0 1 3.787.01M13.442.011c-.11-.05-.199.083-.113.169l3.72 3.734c.086.086.22-.003.168-.113A7.78 7.78 0 0 0 13.442.01M.011 13.492c-.05-.11.082-.2.168-.114l3.72 3.735c.086.086-.002.22-.112.168a7.779 7.779 0 0 1-3.775-3.79M12.575 4.67a5.637 5.637 0 0 1 0 7.952 5.587 5.587 0 0 1-7.922 0 5.637 5.637 0 0 1 0-7.951 5.587 5.587 0 0 1 7.922 0M97.23 16.005V4.865h2.318v11.14zM97.168 3.363V.974h2.441v2.389zM25.67 10.528l-2.38.577c.78 3.274 3.447 5.168 7.098 5.168 3.508 0 5.97-1.75 5.97-4.53 0-3.113-3.065-3.68-5.4-4.111l-.036-.007-1.21-.206c-1.744-.33-3.447-.68-3.447-2.1 0-1.215 1.272-2.224 3.344-2.224 2.01 0 3.528.968 4.185 3.233l2.359-.577c-.862-3.15-3.324-4.736-6.524-4.736-3.385 0-5.785 1.75-5.785 4.407 0 3.088 3.241 3.665 5.334 4.036l1.23.226c1.847.33 3.53.68 3.53 2.141 0 1.257-1.252 2.368-3.57 2.368-2.565 0-4.062-1.338-4.698-3.665"/><path fill-rule="evenodd" d="M42.945 4.598c-3.426 0-5.765 2.389-5.765 5.827 0 3.46 2.4 5.848 5.888 5.848 2.646 0 4.677-1.4 5.457-3.644l-2.175-.742c-.513 1.503-1.702 2.368-3.303 2.368-1.887 0-3.261-1.235-3.528-3.13h9.19v-.638c0-3.542-2.4-5.889-5.764-5.889M46.35 9.52h-6.81c.328-1.77 1.64-2.903 3.446-2.903 1.764 0 3.057 1.091 3.364 2.903" clip-rule="evenodd"/><path d="M49.929 16.005V4.865h2.318v2.657h.041c.657-1.915 2.031-2.924 4.165-2.924 2.79 0 4.226 1.73 4.226 5.045v6.362H58.36V9.911c0-2.183-.882-3.233-2.77-3.233-2.05 0-3.343 1.235-3.343 3.233v6.094zM63.751 12.031l-2.277.536c.718 2.491 3.323 3.706 5.95 3.706 2.707 0 5.066-1.277 5.066-3.624 0-2.368-2.38-2.78-4.349-3.11l-1.23-.205c-1.334-.206-2.565-.453-2.565-1.338 0-.824 1.005-1.483 2.482-1.483 1.375 0 2.81.577 3.221 2.018l2.277-.535c-.697-2.307-3.036-3.398-5.457-3.398-2.605 0-4.841 1.236-4.841 3.46 0 2.45 2.749 2.903 4.431 3.17l1.23.206c1.293.186 2.504.412 2.504 1.297 0 .886-1.19 1.627-2.77 1.627-1.518 0-3.036-.659-3.672-2.327M73.2 8.634c0-4.51 3.037-7.619 7.468-7.619 3.665 0 6.44 2.165 7.236 5.583l-2.357.52c-.57-2.426-2.373-3.9-4.838-3.9-3.036 0-5.087 2.204-5.087 5.436 0 3.213 2.051 5.416 5.087 5.416 2.626 0 4.495-1.665 4.91-4.312l2.367.516c-.651 3.658-3.491 6-7.318 6-4.43 0-7.467-3.11-7.467-7.64M91.553 16.005v-5.333c0-2.182 1.087-3.335 3.672-3.335h1.23V4.866h-.922c-2.442 0-3.426 1.173-3.94 3.356h-.04V4.866h-2.318v11.14zM100.582 6.884h1.928v4.962c0 3.192 1.621 4.427 3.959 4.427.78 0 1.642-.144 2.647-.391l-.349-2.018c-.697.185-1.272.288-1.867.288-1.21 0-2.072-.432-2.072-2.388v-4.88h4.124V4.866h-4.124V2.045h-2.318v2.82h-1.928zM110.011 16.005V4.865h2.318v11.14zM109.95 3.363V.974h2.441v2.389z"/><path fill-rule="evenodd" d="M118.451 4.598c-2.995 0-4.862 2.203-4.862 5.848s1.867 5.827 4.862 5.827c2.01 0 3.59-1.009 4.308-2.986h.041V20h2.318V4.866H122.8v2.738h-.041c-.718-1.976-2.298-3.006-4.308-3.006m.718 9.616c-2.011 0-3.282-1.359-3.282-3.748 0-2.409 1.292-3.809 3.282-3.809 2.113 0 3.631 1.503 3.631 3.789 0 2.285-1.518 3.768-3.631 3.768" clip-rule="evenodd"/><path d="M126.536 11.228V4.866h2.318v6.095c0 2.182.882 3.232 2.77 3.232 2.031 0 3.343-1.235 3.343-3.232V4.866h2.319v11.14h-2.319v-2.657h-.041c-.656 1.915-2.03 2.924-4.164 2.924-2.79 0-4.226-1.73-4.226-5.045"/><path fill-rule="evenodd" d="M144.235 4.598c-3.426 0-5.764 2.389-5.764 5.827 0 3.46 2.4 5.848 5.887 5.848 2.647 0 4.678-1.4 5.457-3.644l-2.174-.742c-.513 1.503-1.703 2.368-3.303 2.368-1.887 0-3.262-1.235-3.529-3.13H150v-.638c0-3.542-2.4-5.889-5.765-5.889m3.406 4.921h-6.811c.328-1.77 1.641-2.903 3.446-2.903 1.765 0 3.057 1.091 3.365 2.903" clip-rule="evenodd"/></svg>