<svg xmlns="http://www.w3.org/2000/svg" id="Layer_2" viewBox="0 0 293.22 306.5"><defs><style>.cls-2{fill:#fa320a}.cls-3{fill:#005d7a}.cls-4{fill:#007870}.cls-8{fill:#fff}.cls-9{fill:#ffe600}.cls-10{fill:gold}</style></defs><g id="Layer_1-2"><path d="M269.93 213.81c-.35.61-.7 1.21-1.08 1.79.38-.59.73-1.19 1.08-1.79m1.11-2.09c-.3.61-.61 1.23-.95 1.82.33-.6.65-1.21.95-1.82m-250.82-4.73c-.19-.56-.35-1.13-.51-1.69.16.57.32 1.14.51 1.69m1.82 4.46c-.24-.49-.45-1-.67-1.5.22.5.43 1.01.67 1.5m242.2 9.95c-.51.52-1.02 1.04-1.56 1.53.54-.5 1.05-1.01 1.56-1.53m-1.73 1.68q-.81.735-1.65 1.44.855-.69 1.65-1.44m11.6-20.25c-.13.61-.26 1.22-.42 1.82.16-.6.29-1.21.42-1.82m-254.58 1.84c-.14-.52-.25-1.06-.37-1.59.12.53.23 1.07.37 1.59m-.55-2.37c-.11-.56-.19-1.12-.28-1.69.09.56.17 1.13.28 1.69m253.83 5.17c-.21.59-.41 1.18-.65 1.75.23-.58.44-1.16.65-1.75m-.84 2.2c-.25.59-.5 1.17-.77 1.75.28-.57.53-1.16.77-1.75m1.56-4.49c-.17.6-.34 1.19-.53 1.78.2-.59.37-1.18.53-1.78m1.02-4.82c-.09.65-.19 1.29-.32 1.93.13-.64.22-1.28.32-1.93m-242.13 24.2c-.52-.42-1.02-.87-1.52-1.31.5.45 1 .89 1.52 1.31m1.93 1.47c-.56-.4-1.1-.81-1.63-1.23.53.42 1.07.84 1.63 1.23m-5.49-4.74q-.705-.75-1.38-1.53c.45.52.9 1.03 1.38 1.53m-1.61-1.79c-.45-.53-.87-1.07-1.28-1.62.42.55.84 1.1 1.28 1.62m-4.1-5.92c-.3-.53-.57-1.07-.84-1.61.27.54.54 1.08.84 1.61m237.52 11.08c-.57.46-1.14.9-1.74 1.33.6-.42 1.17-.87 1.74-1.33m-236.28-9.02c-.33-.51-.64-1.03-.94-1.56.31.52.61 1.05.94 1.56m6.19 7.34c-.51-.47-1-.96-1.49-1.46.48.5.97.99 1.49 1.46" style="fill:none"/><path d="M260.67 224.66c.06-.05.13-.1.19-.14q.855-.69 1.65-1.44c.06-.05.12-.1.17-.15.54-.5 1.05-1.01 1.56-1.53.05-.05.11-.1.16-.16.51-.54 1.01-1.1 1.49-1.67.04-.04.07-.08.11-.12.46-.54.89-1.1 1.32-1.67.05-.07.11-.14.17-.21.43-.59.84-1.19 1.24-1.8.04-.06.08-.12.12-.17.38-.59.73-1.19 1.08-1.79.05-.09.11-.17.16-.26.33-.6.65-1.21.95-1.82.05-.1.11-.2.16-.31.28-.57.53-1.16.77-1.75.06-.15.14-.3.2-.45.23-.58.44-1.16.65-1.75.06-.17.13-.34.19-.51.2-.59.37-1.18.53-1.78.05-.18.11-.35.16-.53.16-.6.29-1.21.42-1.82.04-.18.09-.36.13-.55.13-.64.22-1.28.32-1.93.02-.16.06-.32.08-.48.09-.69.15-1.39.2-2.08 0-.12.03-.24.03-.36.05-.82.08-1.64.08-2.47V85.35c0-14.9-8.76-28.51-22.32-34.68L162.39 9.6a38.1 38.1 0 0 0-31.56 0L40.58 50.67c-13.56 6.17-22.32 19.78-22.32 34.68v109.61c0 1.66.11 3.31.32 4.93.03.24.08.48.12.73.09.56.17 1.13.28 1.69.05.26.12.52.18.78.12.53.23 1.07.37 1.59.06.21.13.42.19.63.16.57.32 1.14.51 1.69.06.19.14.38.21.57.2.57.4 1.13.63 1.69.1.24.21.47.31.7.22.5.43 1.01.67 1.5.09.18.18.35.27.52.27.54.54 1.08.84 1.61.09.17.2.33.3.5.31.53.61 1.05.94 1.56l.27.39c.36.54.72 1.07 1.1 1.59.07.09.14.17.21.26.42.55.84 1.1 1.28 1.62.07.09.16.17.23.26.45.52.9 1.03 1.38 1.53.08.08.16.15.24.23.48.5.98.99 1.49 1.46.1.09.21.18.31.27.5.45 1 .89 1.52 1.31.1.08.21.15.31.23.53.42 1.07.84 1.63 1.23.13.09.27.17.4.26.54.37 1.09.74 1.65 1.09 3.09-.53 6.19-1.02 9.3-1.51l201.82-.02c3.12.49 6.21.95 9.37 1.48.62-.38 1.22-.79 1.81-1.2.07-.05.15-.1.23-.15.6-.42 1.17-.87 1.74-1.33Z" style="fill:#4cbfb4"/><path d="M255.19 45.04 164.95 3.98a44.3 44.3 0 0 0-36.68 0L38.02 45.04c-15.76 7.17-25.94 22.99-25.94 40.3v109.61c0 13.24 5.97 25.6 15.83 33.89 2.81-.51 5.63-1 8.46-1.48-.55-.34-1.08-.7-1.62-1.07-.13-.09-.27-.17-.4-.26-.56-.4-1.1-.81-1.63-1.23-.1-.08-.21-.15-.31-.23-.52-.42-1.02-.87-1.52-1.31-.1-.09-.21-.18-.31-.27-.51-.47-1-.96-1.49-1.46-.08-.08-.16-.15-.24-.23q-.705-.75-1.38-1.53c-.08-.09-.16-.17-.23-.26-.45-.53-.87-1.07-1.28-1.62-.07-.09-.14-.17-.21-.26-.38-.52-.74-1.05-1.1-1.59l-.27-.39c-.33-.51-.64-1.03-.94-1.56-.1-.17-.2-.33-.3-.5-.3-.53-.57-1.07-.84-1.61-.09-.18-.19-.35-.27-.52-.24-.49-.45-1-.67-1.5-.1-.24-.21-.46-.31-.7-.23-.56-.43-1.12-.63-1.69-.07-.19-.15-.38-.21-.57-.19-.56-.35-1.13-.51-1.69-.06-.21-.13-.41-.19-.63-.14-.52-.25-1.06-.37-1.59-.06-.26-.13-.52-.18-.78-.11-.56-.19-1.12-.28-1.69-.04-.24-.09-.48-.12-.73-.21-1.62-.32-3.27-.32-4.93V85.35c0-14.9 8.76-28.51 22.32-34.68L130.82 9.6a38.106 38.106 0 0 1 31.56 0l90.24 41.07c13.56 6.17 22.32 19.78 22.32 34.68v109.61c0 .83-.03 1.65-.08 2.47 0 .12-.03.24-.03.36-.05.7-.11 1.39-.2 2.08-.02.16-.06.32-.08.48-.09.65-.19 1.29-.32 1.93-.04.18-.09.36-.13.55-.13.61-.26 1.22-.42 1.82-.05.18-.11.36-.16.53-.17.6-.34 1.19-.53 1.78-.06.17-.13.34-.19.51-.21.59-.41 1.18-.65 1.75-.06.15-.14.3-.2.45-.25.59-.5 1.18-.77 1.75-.05.1-.11.2-.16.31-.3.61-.61 1.23-.95 1.82-.05.09-.11.17-.16.26-.35.61-.7 1.21-1.08 1.79-.04.06-.08.12-.12.17-.4.61-.81 1.21-1.24 1.8-.05.07-.11.14-.17.21-.43.57-.86 1.13-1.32 1.67-.04.04-.07.08-.11.12-.48.57-.98 1.13-1.49 1.67-.05.05-.11.1-.16.16-.51.52-1.02 1.04-1.56 1.53-.06.05-.12.1-.17.15q-.81.735-1.65 1.44c-.06.05-.13.1-.19.14-.57.46-1.14.9-1.74 1.33-.07.05-.15.1-.23.15-.57.4-1.15.8-1.75 1.17 2.79.47 5.61.97 8.44 1.48 9.8-8.29 15.74-20.62 15.74-33.82V85.36c0-17.31-10.18-33.13-25.94-40.3Z" class="cls-4"/><path d="M19.16 203.08c-.06-.26-.13-.52-.18-.78.05.26.12.52.18.78m13.57 21.72c-.1-.08-.21-.15-.31-.23.1.08.21.15.31.23m-1.83-1.55c-.1-.09-.21-.18-.31-.27.1.09.21.18.31.27m-12.2-22.64c-.04-.24-.09-.48-.12-.73.03.24.08.48.12.73m1.02 4.68c-.06-.21-.13-.41-.19-.63.06.21.13.42.19.63m3.73 8.79c-.1-.17-.2-.33-.3-.5.09.17.2.33.3.5m1.21 1.94-.27-.39c.08.13.18.26.27.39m-3.29-6.07c-.1-.24-.21-.47-.31-.7.1.24.21.47.31.7m.94 2.02c-.09-.18-.19-.35-.27-.52.09.18.18.35.27.52m6.79 9.55c-.08-.08-.16-.15-.24-.23.08.08.16.15.24.23m-3.13-3.65c-.07-.09-.14-.17-.21-.26.07.09.14.17.21.26m1.52 1.89c-.08-.09-.16-.17-.23-.26.08.09.16.17.23.26m-7.06-12.2c-.07-.19-.15-.38-.21-.57.06.19.14.38.21.57m240.43 16.96c-.06.05-.13.1-.19.14.06-.05.13-.1.19-.14m5.14-5.07s-.07.08-.11.12c.04-.04.07-.08.11-.12m1.49-1.88c-.05.07-.11.14-.17.21.05-.07.11-.14.17-.21m1.36-1.97c-.04.06-.08.12-.12.17.04-.06.08-.12.12-.17m-4.45 5.64c-.05.05-.11.1-.16.16.05-.05.11-.1.16-.16m-5.7 4.9c.07-.05.15-.1.23-.15-.07.05-.15.1-.23.15m-223.95.16c-.13-.09-.27-.17-.4-.26.13.09.27.17.4.26m227.93-3.37c-.06.05-.12.1-.17.15.06-.05.12-.1.17-.15M273 206.96c-.06.17-.13.34-.19.51.06-.17.13-.34.19-.51m1.24-4.68c-.04.18-.09.36-.13.55.04-.18.09-.36.13-.55m.39-2.4c-.02.16-.06.32-.08.48.02-.16.06-.32.08-.48m-.94 4.77c-.05.18-.11.36-.16.53.05-.18.11-.35.16-.53m-3.6 8.89c-.05.09-.11.17-.16.26.05-.09.11-.17.16-.26m4.78-16.11c0 .12-.03.24-.03.36 0-.12.03-.24.03-.36m-3.68 13.98c-.05.1-.11.2-.16.31.05-.1.11-.2.16-.31m.98-2.19c-.06.15-.14.3-.2.45.06-.15.14-.3.2-.45" class="cls-4"/><path d="M171.2 261.1c-.98.15-1.96.3-2.95.44.89-.25 1.88-.4 2.95-.44" class="cls-10"/><path d="M65.83 286.85c-15.97 1.01-29.64 8.76-37.68 19.45-.25.28-.64.27-.76-.03-2.75-11.1-3.51-22.94-2.12-34.87 0-.13-.11-.22-.27-.25-7.51-2.36-15.82-3.65-24.65-3.52-.48.05-.47-.41.03-.89a92.85 92.85 0 0 1 33.3-20.68q6.525 18.405 12.78 36.87c.08.24.41.37.75.31.06 0 10.29-1.8 17.99-2.86l.62 6.48Zm227-20.12a92.5 92.5 0 0 0-33.31-20.68 2772 2772 0 0 0-12.79 36.87c-.08.24-.41.37-.75.31-.05 0-10.4-1.82-17.98-2.85-.27 3.02-.62 6.47-.62 6.47 15.97 1.01 29.64 8.76 37.68 19.45.25.28.64.27.76-.03 2.75-11.1 3.51-22.94 2.12-34.87 0-.13.11-.22.27-.25 7.51-2.36 15.82-3.65 24.65-3.52.48.05.47-.41-.03-.89Z" style="fill:#ffd215"/><path d="m246.08 283.24-18.7 3.61.62-6.47c5.96.85 12.16 1.83 18.08 2.87Zm-198.96 0 18.71 3.61-.62-6.48c-5.96.85-12.17 1.83-18.09 2.87" style="fill:#e09b00"/><path d="m46.58 283.24-19.04-54.33c70.6-12.83 144.51-17.01 238.14-.08l-19.07 54.41c-65.25-10.44-124.9-12.55-200.04 0Z" style="fill:#ffec00"/><path d="M225.67 110.11c.19.93.3 1.9.3 2.89 0 1-.09 1.98-.28 2.93 7.01 1.12 12.38 7.16 12.42 14.49 0 .46-.02.91-.06 1.36 3.57.47 6.74 2.22 9.04 4.77-10.07 15.3-51.19 26.94-100.49 27.22-56.44.32-102.35-14.37-103.22-32.9.12-.13.24-.28.37-.41-.87-1.49-1.47-3.14-1.78-4.9-5.4 5.13-8.67 9.27-8.1 15.29.03.4 5.9 42.58 11.83 85.02 2.9-.46 5.82-.89 8.74-1.32l-7.32-56.04c6.9 5.86 16.26 9.94 25.86 13.03l3.95 40.1c5.48-.61 11.01-1.16 16.58-1.64l-2.7-34.15c14.81 3.16 32.19 4.98 45.62 5.37l.32 26.57c6.49-.1 13.06-.09 19.72.02l.32-26.59c13.43-.39 30.81-2.21 45.62-5.37l-2.7 34.19c5.46.47 10.99 1.02 16.58 1.64l3.96-40.14c9.6-3.08 18.96-7.17 25.86-13.03l-7.32 56.01a580 580 0 0 1 8.74 1.33c5.92-42.43 11.8-84.61 11.82-85.01 1.14-12.05-12.95-22.98-33.68-30.75Z" class="cls-2"/><path d="M72.98 181.55c-9.6-3.08-18.96-7.17-25.86-13.03l7.32 56.04c7.43-1.08 14.92-2.06 22.49-2.91zm63.45 9.68c-13.43-.39-30.81-2.21-45.62-5.37l2.7 34.15c14.08-1.21 28.45-1.99 43.24-2.22l-.32-26.57Zm65.98-5.37c-14.81 3.16-32.19 4.98-45.62 5.37l-.32 26.59c13.99.23 28.38.96 43.24 2.23zm43.69-17.34c-6.9 5.86-16.26 9.94-25.86 13.03l-3.96 40.14c7.38.82 14.86 1.75 22.5 2.85l7.32-56.01Z" class="cls-8"/><path d="M43.39 130.88c.87 18.53 46.78 33.22 103.22 32.9 49.29-.28 90.41-11.92 100.49-27.22-2.3-2.55-5.47-4.3-9.04-4.77.04-.45.06-.9.06-1.36-.04-7.33-5.42-13.37-12.42-14.49.19-.95.28-1.93.28-2.93-.05-8.16-6.7-14.74-14.86-14.69-.19 0-.36.02-.55.03.52-1.53.82-3.16.81-4.86-.05-8.16-6.7-14.74-14.86-14.69-1.87.01-3.66.38-5.3 1.03-2.33-4.4-6.82-7.46-12.04-7.81-.91-7.33-7.17-12.98-14.74-12.94-4.76.03-8.97 2.31-11.66 5.83-2.72-2.96-6.62-4.82-10.96-4.79-8.16.05-14.74 6.7-14.69 14.86 0 1.56.26 3.06.72 4.47-3.33.62-6.26 2.35-8.4 4.8-1.7-6.33-7.48-10.98-14.34-10.94-6.41.04-11.83 4.16-13.84 9.88-5.45 2.2-9.28 7.55-9.24 13.78 0 1.38.22 2.72.58 3.99-1.84-.8-3.86-1.25-6-1.24-6.44.04-11.87 4.19-13.87 9.94-1.91-.89-4.04-1.39-6.29-1.38-8.16.05-14.74 6.7-14.69 14.86.02 2.69.76 5.2 2.03 7.37-.13.13-.24.27-.37.41ZM171.2 261.24c-.98.15-1.96.3-2.95.44.89-.25 1.88-.4 2.95-.44" class="cls-10"/><path d="m46.58 283.38-19.04-54.33c70.6-12.83 144.51-17.01 238.14-.08l-19.07 54.41c-65.25-10.44-124.9-12.55-200.04 0Z" class="cls-9"/><path d="M152.4 181.15c-10.02 0-18.17-4.61-22.95-12.21v7.35a4.12 4.12 0 0 1-4.12 4.12h-15.12a4.12 4.12 0 0 1-4.12-4.12v-14.98h-3.19v14.98a4.12 4.12 0 0 1-4.12 4.12H83.66a4.12 4.12 0 0 1-4.12-4.12v-49.17a4.12 4.12 0 0 1 4.12-4.12h15.12a4.12 4.12 0 0 1 4.12 4.12v14.02h3.19v-14.02a4.12 4.12 0 0 1 4.12-4.12h15.12a4.12 4.12 0 0 1 4.12 4.12v7.17c4.74-7.55 12.86-12.03 23.02-12.03 7.42 0 13.43 2.16 18.3 6.6v-1.75a4.12 4.12 0 0 1 4.12-4.12h34.65a4.12 4.12 0 0 1 4.12 4.12v11.8a4.12 4.12 0 0 1-4.12 4.12h-6.05v33.26a4.12 4.12 0 0 1-4.12 4.12h-14.3a4.12 4.12 0 0 1-4.12-4.12v-14.64l-2.61.31c-3.56 11.67-13.24 19.19-25.94 19.19" class="cls-2"/><path d="M83.68 127.11H98.8v18.14h11.43v-18.14h15.12v49.18h-15.12v-19.1H98.8v19.1H83.68zm68.79-.73c6.93 0 12.24 2.06 16.59 6.56 4.5 4.72 6.64 10.62 6.64 18.65 0 15.04-9.51 25.44-23.3 25.44s-23.45-10.17-23.45-25.29 9.36-25.36 23.52-25.36m6.41 32.22c.29-1.99.59-5.53.59-8.18 0-8.7-2.21-12.9-6.93-12.9s-7.37 5.09-7.37 14.67 2.36 13.71 7.15 13.71c3.76 0 5.75-2.29 6.56-7.3m26.18-19.69h-10.18v-11.8h34.65v11.8h-10.17v37.38h-14.3zm22.44 81.91c-.82-5.91-4.54-9.49-10.14-9.49-1.51 0-3.03.48-4.32 1.19-.37-.35-.87-.57-1.42-.57h-8.77c-.5 0-.96.18-1.31.47-.42-.72-.91-1.41-1.47-2.06-2.3-2.68-5.56-4.04-9.71-4.04s-7.25 1.33-9.75 3.94c-.7.72-1.31 1.49-1.81 2.33v-6.71h-13.76c-1.14 0-2.06.92-2.06 2.06v3.97h-.23c-.3 0-3.1-.02-3.1-.02v-3.97c0-1.14-.92-2.06-2.06-2.06h-8.77c-1.14 0-2.06.92-2.06 2.06v3.97h-.23c-1.14 0-2.06.92-2.06 2.06v1.7c-1.72-1.9-4.06-3.26-6.93-3.92-1.48-.29-2.74-.42-3.98-.42-1.37 0-2.75.17-4.55.56-2.51.66-4.61 1.85-6.23 3.46-.84-6.54-6-10.38-14.15-10.38H76.51c-1.14 0-2.06.92-2.06 2.06v14.98c41.16-4.78 84.52-5.92 133.04-1.19Z" class="cls-8"/><path d="M181.37 219.82c0-3.18-.96-5.87-2.87-8.1s-4.64-3.32-8.14-3.32-6.14 1.09-8.28 3.32c-2.14 2.18-3.18 5-3.18 8.51s1.14 6.37 3.41 8.42 5.14 3.09 8.6 3.09 7.17-.62 10.12-3.76l-5.37-5.05c-1.13 1.49-2.7 1.76-4.84 1.76-1.82 0-3.78-1-4.19-2.78h14.7l.05-2.09Zm-14.74-2.17c.36-1.68 1.68-2.85 3.56-2.85 2.09 0 3.26 1.22 3.41 2.85zm58.02 33.13c0-3.18-.96-5.87-2.87-8.1s-4.64-3.32-8.14-3.32-6.14 1.09-8.28 3.32c-2.14 2.18-3.18 5-3.18 8.51s1.14 6.37 3.41 8.42 5.14 3.09 8.6 3.09 7.17-.62 10.12-3.76l-5.37-5.05c-1.13 1.49-2.7 1.76-4.84 1.76-1.82 0-3.78-1-4.19-2.77h14.7l.05-2.09Zm-14.74-2.17c.36-1.68 1.68-2.85 3.56-2.85 2.09 0 3.26 1.22 3.41 2.85zM96.12 225.85l.28-.17c2.95-1.78 4.45-4.6 4.45-8.37 0-6.53-4.45-10.28-12.21-10.28H76.52v29.12h8.82v-9.45h1.47l5.53 9.45h9.93l-6.14-10.3Zm-8.27-5.89h-2.53v-6.13h2.53c2.45 0 4.03 1.16 4.03 2.96 0 2.02-1.47 3.17-4.03 3.17m-2 19.79c-2.93-.58-4.55-.48-7.25.11-4.86 1.29-8.47 5.07-8.47 11.17 0 7.66 5.87 11.67 12.31 11.67s11.99-4.01 11.99-11.67c0-6.28-3.52-10.11-8.58-11.28m-3.57 14.81c-2.13 0-4.03-1.61-4.03-3.84s1.9-3.88 4.03-3.88 4.03 1.6 4.03 3.88-1.83 3.84-4.03 3.84m49.35-5.26v12.82h-8.92v-12.04c0-1.89-.81-2.85-2.4-2.85s-1.91 1-2.01 1.32c-.27.98-.32 1.54-.32 2.73v10.83h-8.79v-12.04c0-1.89-.82-2.85-2.45-2.85-.92 0-1.52.45-1.76.83-.17.25-.29.7-.37 1.02-.16.91-.16 1.24-.16 2.2v10.83h-8.54v-22.18h8.46V242c.59-1.22 2.88-2.66 6.09-2.66 2.64 0 4.75.91 6.09 2.63l.24.3.26-.29c1.6-1.81 3.43-2.58 6.13-2.58 2.54 0 8.46.96 8.46 9.88Zm40.26 5.36h2.78v7.6l-.51.02c-.89.04-2.09.09-3.33.09-5.89 0-9.26-2.95-9.26-8.67v-6.12h-2.29v-7.64h2.29v-6.04h8.78v6.04h3.46v7.64h-3.46v5.55c0 1.08.46 1.54 1.54 1.54Z" class="cls-3"/><path d="M73.05 241.42h-7.54v20.7h-8.56v-20.7h-7.54V233h23.64zm82.3-12.71h2.78v7.59l-.51.02c-.89.04-2.09.09-3.33.09-5.88 0-9.25-2.95-9.25-8.66v-6.12h-2.29V214h2.29v-6.03h8.77V214h3.46v7.63h-3.46v5.55c0 1.08.46 1.54 1.54 1.54Zm-26.53-7.1h-2.29v-7.63h2.29v-6.03h8.77v6.03h3.46v7.63h-3.46v5.55c0 1.08.46 1.54 1.54 1.54h2.78v7.59l-.51.02c-.89.04-2.09.09-3.33.09-5.88 0-9.25-2.95-9.25-8.66v-6.12Zm20.26 18.38v2.54l-.55-.61c-1.54-1.68-3.47-2.56-5.59-2.56-1.49 0-3.07.45-4.55 1.31-3.31 1.91-5.28 5.77-5.29 10.33 0 4.58 1.97 8.46 5.29 10.38 1.48.86 3.07 1.31 4.58 1.31 2.11 0 4.03-.87 5.56-2.5l.55-.59v2.49h8.5v-22.1zm-1.05 13.56c-.67.76-1.62 1.15-2.75 1.15-1.82 0-3.67-1.26-3.67-3.67 0-.96.33-1.85.92-2.52.67-.76 1.62-1.15 2.75-1.15 1.83 0 3.67 1.26 3.67 3.67 0 .96-.33 1.85-.92 2.52m43.67-17.4h-8.86v-22.13h8.77v2.56c.59-1.34 3.18-3.19 5.74-3.19 5.25 0 8.26 3.63 8.26 9.97v12.79h-8.84v-12.06c0-1.86-.8-2.8-2.38-2.8s-2.68.7-2.68 4.18v10.68Zm53.41 18.47c0 2.41-.97 4.41-2.88 5.95-1.8 1.49-4.18 2.25-7.04 2.25-3.72 0-6.73-.78-9.43-2.55l-.51-.36 3.52-5.81c4.04 2.59 6.13 2.2 6.93 2.14 1.75-.13 1.94-2.07.49-2.04-1.11.03-3.31.25-6.56-1.26-2.28-1.39-3.76-3.02-3.76-5.69 0-2.31.96-4.21 2.86-5.63 1.82-1.37 3.56-2.12 6.16-2.24 3.37-.16 5.81.58 8.83 2.13l.64.42-3.21 5.29c-3.52-1.41-5.34-1.79-6.62-1.55-1.5.28-1.28 1.74-.18 1.88 1.1.15 2.86-.33 6.18.85 2.88 1.15 4.59 3.02 4.59 6.21Zm-131.55-17.9c6.84 0 12.16-4.01 12.16-11.66 0-6.28-3.52-10.11-8.57-11.28-2.93-.58-4.91-.48-7.6.11-4.86 1.29-8.46 5.07-8.46 11.17 0 7.65 5.64 11.66 12.48 11.66Z" class="cls-3"/><path d="M106.99 224.62c-1.16-.47-1.85-1.47-1.31-2.55.4-.81 1.59-1.13 2.5-.78 1.09.42 1.26 1.55 1.82 2.02.48.4 1.13.45 1.56.18.32-.2.42-.65.3-1.06-.16-.54-.58-.88-.99-1.22-.73-.59-1.76-1.1-1.14-2.72.51-1.33 2.01-1.37 2.01-1.37.59-.07 1.13.11 1.56.5.58.52.69 1.21.6 1.95-.09.67-.33 1.27-.45 1.93-.14.78.27 1.56 1.06 1.59 1.04.04 1.35-.76 1.48-1.26.19-.74.43-1.43 1.12-1.86.99-.62 2.35-.48 2.99.71.5.94.34 2.24-.43 2.95-.35.32-.76.43-1.21.43-.64 0-1.29-.01-1.89.29-.41.21-.58.54-.58.99 0 .44.23.72.6.91.69.35 1.46.42 2.21.55 1.09.19 2.04.57 2.66 1.58 0 0 .01.02.02.03.7 1.19-.03 2.92-1.42 2.99-3.08.16-3.72-3.37-4.93-3.34-.52.01-.92.55-.74 1.18.1.35.37.85.54 1.17.61 1.11-.29 2.36-1.34 2.47-1.74.18-2.47-.83-2.42-1.87.05-1.16 1.03-2.35.03-2.85-1.06-.53-1.92 1.54-2.93 2-.92.42-2.19.09-2.64-.92-.32-.71-.26-2.09 1.15-2.61.88-.33 2.85.43 2.95-.53.12-1.1-2.07-1.2-2.72-1.46Z" class="cls-9"/><path d="M200.76 248.44c1.61 6.65-3.21 12.23-9.48 13.75-6.27 1.51-13.25-1.22-14.86-7.87-1.13-4.69.57-8.5 3.8-10.99.31-.25.69-.5.95-.59-1.61.14-2.59.06-3.57.39-.11.04-.21-.08-.15-.18 1.05-1.99 3.46-2.96 5.17-2.3a281 281 0 0 1-2.07-1.82l1.59-1.32s1.02 1.5 1.76 2.6c.97-2.18 3.39-2.79 4.67-1.59.08.07.03.2-.07.21-.85.13-1.16 1.01-1.09 1.59l.73-.09c6.01-.77 11.17 2.22 12.62 8.21m48.52-7.04c.43-.2.64-.53.64-1.01 0-.74-.58-1.1-1.32-1.1h-1.39v3.09h.84v-.85h.42l.59.85h.95l-.73-.99Zm-.82-.62h-.41v-.76h.41c.41 0 .62.12.62.37s-.21.39-.62.39" class="cls-3"/><path d="M250.85 238.5c-.65-.67-1.45-1-2.39-1s-1.73.33-2.38 1c-.64.67-.96 1.47-.96 2.42s.32 1.74.96 2.4c.65.65 1.44.99 2.38.99s1.74-.33 2.39-.99c.65-.67.99-1.47.99-2.4s-.33-1.75-.99-2.42m-.65 4.19q-.705.72-1.74.72c-1.035 0-1.26-.23-1.73-.72-.47-.48-.7-1.07-.7-1.78s.23-1.31.7-1.79c.47-.49 1.05-.74 1.73-.74s1.27.25 1.74.74c.48.48.72 1.09.72 1.79s-.23 1.29-.72 1.78" class="cls-3"/><path d="M259.53 246.05c-4.19 11.83-8.76 25.01-12.79 36.87L266 248.63s-3.14-1.4-6.47-2.58m-225.85 0c-3.44 1.24-6.45 2.58-6.45 2.58l19.23 34.23c-4.02-11.84-8.59-25-12.78-36.81" style="fill:#e09b00;opacity:.5"/><path d="m107.52 56.25-2.44-4.87-11.15 5.58-2.24-4.47 10.59-5.3-2.35-4.68-10.58 5.3-2.02-4.03 11.15-5.58-2.44-4.88-17.17 8.59 11.49 22.94zm18.56-4.81 7.03-1.56-7.34-7.78.22-.17c2.7-2.13 3.63-4.87 2.84-8.39-.61-2.73-1.99-4.67-4.12-5.75-2.12-1.07-4.86-1.25-8.14-.52l-9.92 2.2 5.56 25.05 6.13-1.36-1.76-7.91 3.02-.67 6.46 6.86Zm-10.65-11.48-1.45-6.52 3.39-.75c3.2-.71 4.84-.05 5.33 2.14.25 1.12.03 2.06-.64 2.8-.65.71-1.74 1.24-3.24 1.58zm23.472-15.796 6.277-.18.734 25.64-6.277.18zm17.848.036-3.68 25.4 6.21.9 1.38-9.54 10.68 1.55.75-5.18-10.68-1.55.77-5.27 11.53 1.67.78-5.41zm19.557 29.847 8.04-24.368 5.964 1.968-8.04 24.368zM200.93 35.69l-12.24 22.55 16.87 9.16 2.61-4.8-10.96-5.94 2.38-4.4 10.4 5.65 2.5-4.6-10.4-5.64 2.15-3.97 10.96 5.95 2.6-4.8zm34.56 40.56c3.04-3.34 4.28-7 3.49-10.32-.75-3.12-2.47-5.87-5.26-8.42l-6.79-6.19-17.28 18.96 6.79 6.19c3.09 2.82 11.15 8.44 19.05-.22m-10.05-1.51c-1.88-.02-3.88-.98-5.93-2.85l-1.54-1.41 9.93-10.89 1.51 1.38c4.15 3.79 4.63 7.5 1.41 11.03-1.5 1.64-3.1 2.56-4.78 2.72-.2.02-.4.03-.61.03ZM66.74 50.23l7.46 17.6-15.85-10.69-5.24 4.32 22.61 14.57 6.24-5.14-9.98-24.98z"/></g></svg>