<?xml version="1.0" encoding="UTF-8"?>
<svg width="98px" height="100px" viewBox="0 0 98 100" version="1.1" xmlns="http://www.w3.org/2000/svg" xmlns:xlink="http://www.w3.org/1999/xlink">
    <!-- Generator: Sketch 61.2 (89653) - https://sketch.com -->
    <title>Branding / BFI Logo / Black</title>
    <desc>Created with Sketch.</desc>
    <g id="Branding-/-BFI-Logo-/-Black" stroke="none" stroke-width="1" fill="none" fill-rule="evenodd">
        <g id="BFI-Logo-Copy" fill="#FFFFFF">
            <path d="M28.0268,15.3963 C28.0268,13.4183 27.2448,12.3063 26.0908,11.6473 C25.2678,11.1943 24.4018,11.1103 22.8368,11.1103 L19.8298,11.1103 L19.7468,20.0093 L22.8778,20.0093 C26.0078,20.0093 28.0268,18.3613 28.0268,15.3963" id="Fill-15"/>
            <path d="M23.7001,23.6355 L19.7461,23.6355 L19.6641,33.1925 L23.4561,33.1925 C26.7901,33.1925 29.5111,31.7905 29.5111,28.3305 C29.5111,25.1185 26.7081,23.6355 23.7001,23.6355" id="Fill-16"/>
            <path d="M80.422,66.402 C80.315,66.402 80.211,66.416 80.104,66.418 C81.703,62.801 82.607,58.808 82.607,54.599 C82.607,38.419 69.493,25.303 53.313,25.303 C50.451,25.303 47.692,25.733 45.077,26.498 C45.285,25.263 45.418,24.002 45.418,22.708 C45.418,10.166 35.25,0 22.71,0 C10.166,0 0,10.166 0,22.708 C0,35.248 10.166,45.416 22.71,45.416 C23.686,45.416 24.641,45.334 25.584,45.215 C24.586,48.164 24.021,51.312 24.021,54.599 C24.021,70.775 37.136,83.89 53.313,83.89 C56.984,83.89 60.481,83.185 63.719,81.953 C63.69,82.356 63.658,82.758 63.658,83.168 C63.658,92.427 71.163,99.933 80.422,99.933 C89.682,99.933 97.187,92.427 97.187,83.168 C97.187,73.908 89.682,66.402 80.422,66.402 L80.422,66.402 Z M24.194,36.57 L12.124,36.57 L12.124,33.192 L15.01,33.192 L15.174,11.111 L12.124,11.111 L12.124,7.731 L23.618,7.731 C26.627,7.731 28.522,8.063 30.294,9.379 C31.652,10.37 32.889,12.388 32.889,14.817 C32.889,18.157 30.827,21.122 27.163,21.41 L27.163,21.491 C31.035,21.45 34.617,24.088 34.617,28.496 C34.617,33.397 31.157,36.57 24.194,36.57 L24.194,36.57 Z M63.673,52.535 L63.673,57.423 L51.562,57.423 L51.452,70.31 L56.227,70.31 L56.227,74.865 L41.287,74.865 L41.287,70.31 L45.175,70.31 L45.397,40.536 L40.897,40.536 L40.897,36.263 L40.897,35.98 L41.108,35.98 L68.227,35.98 L68.45,46.2 L63.283,46.2 L62.95,40.536 L51.674,40.536 L51.562,52.535 L63.673,52.535 Z M84.526,75.592 L82.606,75.592 L82.606,90.709 L84.526,90.709 L84.526,93.818 L76.236,93.818 L76.236,90.709 L78.157,90.709 L78.157,75.592 L76.236,75.592 L76.236,72.805 L76.236,72.485 L76.476,72.485 L84.526,72.485 L84.526,75.592 Z" id="Fill-17"/>
        </g>
    </g>
</svg>